<svg xmlns="http://www.w3.org/2000/svg" width="900" height="460" viewBox="0 0 900 460">
<rect width="900" height="460" fill="#ffffff" rx="10" stroke="#e2e8f0" stroke-width="1.5"/>
<defs><marker id="ah" markerWidth="7" markerHeight="5" refX="7" refY="2.5" orient="auto"><polygon points="0 0,7 2.5,0 5" fill="#94a3b8"/></marker></defs>
<text x="95" y="22" text-anchor="middle" font-size="10" fill="#94a3b8" font-family="ui-sans-serif,system-ui,sans-serif">config</text>
<text x="285" y="22" text-anchor="middle" font-size="10" fill="#94a3b8" font-family="ui-sans-serif,system-ui,sans-serif">governor</text>
<text x="485" y="22" text-anchor="middle" font-size="10" fill="#94a3b8" font-family="ui-sans-serif,system-ui,sans-serif">agents</text>
<text x="755" y="22" text-anchor="middle" font-size="10" fill="#94a3b8" font-family="ui-sans-serif,system-ui,sans-serif">coordination</text>
<rect x="30" y="148" width="130" height="34" rx="6" fill="#dbeafe" stroke="#1d4ed8" stroke-width="1.5"/>
<text x="95" y="160" text-anchor="middle" font-size="12" font-weight="600" fill="#1e293b" font-family="ui-sans-serif,system-ui,sans-serif">hive.conf</text>
<text x="95" y="174" text-anchor="middle" font-size="9.5" fill="#1d4ed8" font-family="ui-sans-serif,system-ui,sans-serif">repos · ntfy topic</text>

<rect x="30" y="258" width="130" height="34" rx="6" fill="#d1fae5" stroke="#065f46" stroke-width="1.5"/>
<text x="95" y="280" text-anchor="middle" font-size="12" font-weight="600" fill="#1e293b" font-family="ui-sans-serif,system-ui,sans-serif">GitHub repos</text>

<rect x="220" y="198" width="130" height="34" rx="6" fill="#fed7aa" stroke="#92400e" stroke-width="1.5"/>
<text x="285" y="210" text-anchor="middle" font-size="12" font-weight="600" fill="#1e293b" font-family="ui-sans-serif,system-ui,sans-serif">kick-governor</text>
<text x="285" y="224" text-anchor="middle" font-size="9.5" fill="#92400e" font-family="ui-sans-serif,system-ui,sans-serif">velocity · busy%</text>

<rect x="420" y="50" width="130" height="34" rx="6" fill="#ede9fe" stroke="#5b21b6" stroke-width="1.5"/>
<text x="485" y="72" text-anchor="middle" font-size="12" font-weight="600" fill="#1e293b" font-family="ui-sans-serif,system-ui,sans-serif">scanner</text>

<rect x="420" y="120" width="130" height="34" rx="6" fill="#ede9fe" stroke="#5b21b6" stroke-width="1.5"/>
<text x="485" y="142" text-anchor="middle" font-size="12" font-weight="600" fill="#1e293b" font-family="ui-sans-serif,system-ui,sans-serif">reviewer</text>

<rect x="420" y="190" width="130" height="34" rx="6" fill="#ede9fe" stroke="#5b21b6" stroke-width="1.5"/>
<text x="485" y="212" text-anchor="middle" font-size="12" font-weight="600" fill="#1e293b" font-family="ui-sans-serif,system-ui,sans-serif">architect</text>

<rect x="420" y="260" width="130" height="34" rx="6" fill="#ede9fe" stroke="#5b21b6" stroke-width="1.5"/>
<text x="485" y="282" text-anchor="middle" font-size="12" font-weight="600" fill="#1e293b" font-family="ui-sans-serif,system-ui,sans-serif">outreach</text>

<rect x="420" y="330" width="130" height="34" rx="6" fill="#ede9fe" stroke="#5b21b6" stroke-width="1.5"/>
<text x="485" y="352" text-anchor="middle" font-size="12" font-weight="600" fill="#1e293b" font-family="ui-sans-serif,system-ui,sans-serif">supervisor</text>

<rect x="690" y="119" width="130" height="51" fill="#fef9c3" stroke="#854d0e" stroke-width="1.5"/>
<ellipse cx="755" cy="170" rx="65" ry="9" fill="#fef9c3" stroke="#854d0e" stroke-width="1.5"/>
<ellipse cx="755" cy="119" rx="65" ry="9" fill="white" fill-opacity="0.6" stroke="#854d0e" stroke-width="1.5"/>
<text x="755" y="139" text-anchor="middle" font-size="12" font-weight="600" fill="#1e293b" font-family="ui-sans-serif,system-ui,sans-serif">beads</text>
<text x="755" y="153" text-anchor="middle" font-size="9.5" fill="#854d0e" font-family="ui-sans-serif,system-ui,sans-serif">shared ledger</text>

<rect x="690" y="290" width="130" height="34" rx="6" fill="#fce7f3" stroke="#9d174d" stroke-width="1.5"/>
<text x="755" y="302" text-anchor="middle" font-size="12" font-weight="600" fill="#1e293b" font-family="ui-sans-serif,system-ui,sans-serif">ntfy</text>
<text x="755" y="316" text-anchor="middle" font-size="9.5" fill="#9d174d" font-family="ui-sans-serif,system-ui,sans-serif">phone alerts</text>

<path d="M160,165 C190,165 190,215 220,215" fill="none" stroke="#94a3b8" stroke-width="1.5" marker-end="url(#ah)"/>

<path d="M160,275 C190,275 190,215 220,215" fill="none" stroke="#94a3b8" stroke-width="1.5" marker-end="url(#ah)"/>

<path d="M350,215 C385,215 385,67 420,67" fill="none" stroke="#94a3b8" stroke-width="1.5" marker-end="url(#ah)"/>

<path d="M350,215 C385,215 385,137 420,137" fill="none" stroke="#94a3b8" stroke-width="1.5" marker-end="url(#ah)"/>

<path d="M350,215 C385,215 385,207 420,207" fill="none" stroke="#94a3b8" stroke-width="1.5" marker-end="url(#ah)"/>

<path d="M350,215 C385,215 385,277 420,277" fill="none" stroke="#94a3b8" stroke-width="1.5" marker-end="url(#ah)"/>

<path d="M350,215 C385,215 385,347 420,347" fill="none" stroke="#94a3b8" stroke-width="1.5" marker-end="url(#ah)"/>

<line x1="572" y1="67" x2="572" y2="347" stroke="#cbd5e1" stroke-width="2"/>

<line x1="550" y1="67" x2="572" y2="67" stroke="#cbd5e1" stroke-width="1.5"/>

<line x1="550" y1="137" x2="572" y2="137" stroke="#cbd5e1" stroke-width="1.5"/>

<line x1="550" y1="207" x2="572" y2="207" stroke="#cbd5e1" stroke-width="1.5"/>

<line x1="550" y1="277" x2="572" y2="277" stroke="#cbd5e1" stroke-width="1.5"/>

<line x1="550" y1="347" x2="572" y2="347" stroke="#cbd5e1" stroke-width="1.5"/>

<path d="M572,144 C631,144 631,144 690,144" fill="none" stroke="#94a3b8" stroke-width="1.5" marker-end="url(#ah)"/>

<path d="M572,307 C631,307 631,307 690,307" fill="none" stroke="#94a3b8" stroke-width="1.5" marker-end="url(#ah)"/>

<circle cx="572" cy="144" r="3" fill="#cbd5e1"/>
<circle cx="572" cy="307" r="3" fill="#cbd5e1"/>
</svg>