<svg xmlns="http://www.w3.org/2000/svg" width="940" height="560" viewBox="0 0 940 560">
<rect width="940" height="560" fill="#ffffff" rx="10" stroke="#e2e8f0" stroke-width="1.5"/>
<defs><marker id="ah" markerWidth="7" markerHeight="5" refX="7" refY="2.5" orient="auto"><polygon points="0 0,7 2.5,0 5" fill="#94a3b8"/></marker></defs>

<!-- Section labels -->
<text x="95"  y="22" text-anchor="middle" font-size="10" fill="#94a3b8" font-family="ui-sans-serif,system-ui,sans-serif">config</text>
<text x="295" y="22" text-anchor="middle" font-size="10" fill="#94a3b8" font-family="ui-sans-serif,system-ui,sans-serif">governor</text>
<text x="505" y="22" text-anchor="middle" font-size="10" fill="#94a3b8" font-family="ui-sans-serif,system-ui,sans-serif">agents</text>
<text x="775" y="22" text-anchor="middle" font-size="10" fill="#94a3b8" font-family="ui-sans-serif,system-ui,sans-serif">coordination</text>

<!-- Config: hive.conf -->
<rect x="30" y="148" width="130" height="44" rx="6" fill="#dbeafe" stroke="#1d4ed8" stroke-width="1.5"/>
<text x="95" y="162" text-anchor="middle" font-size="12" font-weight="600" fill="#1e293b" font-family="ui-sans-serif,system-ui,sans-serif">hive.conf</text>
<text x="95" y="177" text-anchor="middle" font-size="9.5" fill="#1d4ed8" font-family="ui-sans-serif,system-ui,sans-serif">repos · backends</text>
<text x="95" y="189" text-anchor="middle" font-size="9.5" fill="#1d4ed8" font-family="ui-sans-serif,system-ui,sans-serif">notifications</text>

<!-- Config: GitHub repos -->
<rect x="30" y="268" width="130" height="34" rx="6" fill="#d1fae5" stroke="#065f46" stroke-width="1.5"/>
<text x="95" y="290" text-anchor="middle" font-size="12" font-weight="600" fill="#1e293b" font-family="ui-sans-serif,system-ui,sans-serif">GitHub repos</text>

<!-- Governor -->
<rect x="230" y="208" width="130" height="34" rx="6" fill="#fed7aa" stroke="#92400e" stroke-width="1.5"/>
<text x="295" y="220" text-anchor="middle" font-size="12" font-weight="600" fill="#1e293b" font-family="ui-sans-serif,system-ui,sans-serif">kick-governor</text>
<text x="295" y="234" text-anchor="middle" font-size="9.5" fill="#92400e" font-family="ui-sans-serif,system-ui,sans-serif">SURGE·BUSY·QUIET·IDLE</text>

<!-- Agents -->
<rect x="440" y="50"  width="130" height="34" rx="6" fill="#ede9fe" stroke="#5b21b6" stroke-width="1.5"/>
<text x="505" y="72"  text-anchor="middle" font-size="12" font-weight="600" fill="#1e293b" font-family="ui-sans-serif,system-ui,sans-serif">scanner</text>

<rect x="440" y="120" width="130" height="34" rx="6" fill="#ede9fe" stroke="#5b21b6" stroke-width="1.5"/>
<text x="505" y="142" text-anchor="middle" font-size="12" font-weight="600" fill="#1e293b" font-family="ui-sans-serif,system-ui,sans-serif">reviewer</text>

<rect x="440" y="190" width="130" height="34" rx="6" fill="#ede9fe" stroke="#5b21b6" stroke-width="1.5"/>
<text x="505" y="212" text-anchor="middle" font-size="12" font-weight="600" fill="#1e293b" font-family="ui-sans-serif,system-ui,sans-serif">architect</text>

<rect x="440" y="260" width="130" height="34" rx="6" fill="#ede9fe" stroke="#5b21b6" stroke-width="1.5"/>
<text x="505" y="282" text-anchor="middle" font-size="12" font-weight="600" fill="#1e293b" font-family="ui-sans-serif,system-ui,sans-serif">outreach</text>

<rect x="440" y="330" width="130" height="34" rx="6" fill="#ede9fe" stroke="#5b21b6" stroke-width="1.5"/>
<text x="505" y="352" text-anchor="middle" font-size="12" font-weight="600" fill="#1e293b" font-family="ui-sans-serif,system-ui,sans-serif">supervisor</text>

<!-- Backend CLI label under agents -->
<text x="505" y="378" text-anchor="middle" font-size="9" fill="#7c3aed" font-family="ui-sans-serif,system-ui,sans-serif">claude · copilot · gemini · goose</text>

<!-- Local model stack (bottom) -->
<rect x="230" y="430" width="130" height="34" rx="6" fill="#f0fdf4" stroke="#166534" stroke-width="1.5"/>
<text x="295" y="442" text-anchor="middle" font-size="12" font-weight="600" fill="#1e293b" font-family="ui-sans-serif,system-ui,sans-serif">ollama</text>
<text x="295" y="456" text-anchor="middle" font-size="9.5" fill="#166534" font-family="ui-sans-serif,system-ui,sans-serif">local model runner</text>

<rect x="410" y="430" width="130" height="34" rx="6" fill="#f0fdf4" stroke="#166534" stroke-width="1.5"/>
<text x="475" y="442" text-anchor="middle" font-size="12" font-weight="600" fill="#1e293b" font-family="ui-sans-serif,system-ui,sans-serif">litellm</text>
<text x="475" y="456" text-anchor="middle" font-size="9.5" fill="#166534" font-family="ui-sans-serif,system-ui,sans-serif">OpenAI proxy :4000</text>

<text x="350" y="420" text-anchor="middle" font-size="9" fill="#6b7280" font-family="ui-sans-serif,system-ui,sans-serif">optional: local models</text>

<!-- Coordination: beads -->
<rect x="710" y="119" width="130" height="51" fill="#fef9c3" stroke="#854d0e" stroke-width="1.5"/>
<ellipse cx="775" cy="170" rx="65" ry="9" fill="#fef9c3" stroke="#854d0e" stroke-width="1.5"/>
<ellipse cx="775" cy="119" rx="65" ry="9" fill="white" fill-opacity="0.6" stroke="#854d0e" stroke-width="1.5"/>
<text x="775" y="139" text-anchor="middle" font-size="12" font-weight="600" fill="#1e293b" font-family="ui-sans-serif,system-ui,sans-serif">beads</text>
<text x="775" y="153" text-anchor="middle" font-size="9.5" fill="#854d0e" font-family="ui-sans-serif,system-ui,sans-serif">shared ledger</text>

<!-- Coordination: notifications -->
<rect x="710" y="280" width="130" height="54" rx="6" fill="#fce7f3" stroke="#9d174d" stroke-width="1.5"/>
<text x="775" y="296" text-anchor="middle" font-size="12" font-weight="600" fill="#1e293b" font-family="ui-sans-serif,system-ui,sans-serif">notify</text>
<text x="775" y="311" text-anchor="middle" font-size="9.5" fill="#9d174d" font-family="ui-sans-serif,system-ui,sans-serif">ntfy · slack · discord</text>
<text x="775" y="325" text-anchor="middle" font-size="9" fill="#be185d" font-family="ui-sans-serif,system-ui,sans-serif">optional channels</text>

<!-- Config → Governor arrows -->
<path d="M160,170 C195,170 195,225 230,225" fill="none" stroke="#94a3b8" stroke-width="1.5" marker-end="url(#ah)"/>
<path d="M160,285 C195,285 195,225 230,225" fill="none" stroke="#94a3b8" stroke-width="1.5" marker-end="url(#ah)"/>

<!-- Governor → Agents arrows -->
<path d="M360,225 C395,225 395,67  440,67"  fill="none" stroke="#94a3b8" stroke-width="1.5" marker-end="url(#ah)"/>
<path d="M360,225 C395,225 395,137 440,137" fill="none" stroke="#94a3b8" stroke-width="1.5" marker-end="url(#ah)"/>
<path d="M360,225 C395,225 395,207 440,207" fill="none" stroke="#94a3b8" stroke-width="1.5" marker-end="url(#ah)"/>
<path d="M360,225 C395,225 395,277 440,277" fill="none" stroke="#94a3b8" stroke-width="1.5" marker-end="url(#ah)"/>
<path d="M360,225 C395,225 395,347 440,347" fill="none" stroke="#94a3b8" stroke-width="1.5" marker-end="url(#ah)"/>

<!-- Agents bus line -->
<line x1="592" y1="67"  x2="592" y2="347" stroke="#cbd5e1" stroke-width="2"/>
<line x1="570" y1="67"  x2="592" y2="67"  stroke="#cbd5e1" stroke-width="1.5"/>
<line x1="570" y1="137" x2="592" y2="137" stroke="#cbd5e1" stroke-width="1.5"/>
<line x1="570" y1="207" x2="592" y2="207" stroke="#cbd5e1" stroke-width="1.5"/>
<line x1="570" y1="277" x2="592" y2="277" stroke="#cbd5e1" stroke-width="1.5"/>
<line x1="570" y1="347" x2="592" y2="347" stroke="#cbd5e1" stroke-width="1.5"/>

<!-- Bus → Coordination arrows -->
<path d="M592,144 C651,144 651,144 710,144" fill="none" stroke="#94a3b8" stroke-width="1.5" marker-end="url(#ah)"/>
<path d="M592,307 C651,307 651,307 710,307" fill="none" stroke="#94a3b8" stroke-width="1.5" marker-end="url(#ah)"/>
<circle cx="592" cy="144" r="3" fill="#cbd5e1"/>
<circle cx="592" cy="307" r="3" fill="#cbd5e1"/>

<!-- Ollama → litellm arrow -->
<path d="M360,447 L410,447" fill="none" stroke="#94a3b8" stroke-width="1.5" marker-end="url(#ah)"/>

<!-- litellm → goose agent (optional, dashed) -->
<path d="M540,447 C560,447 560,364 570,364" fill="none" stroke="#a3e635" stroke-width="1.5" stroke-dasharray="4,3" marker-end="url(#ah)"/>
<text x="562" y="416" font-size="8" fill="#65a30d" font-family="ui-sans-serif,system-ui,sans-serif" transform="rotate(-90,562,416)">local</text>
</svg>